<svg version="1.1" xmlns="http://www.w3.org/2000/svg" xmlns:xlink="http://www.w3.org/1999/xlink" width="885.6000351905823" height="97.20000386238098"><defs><clipPath id="gJHktqXcmOTX"><path fill="none" stroke="none" d=" M 56 42 L 56 56 L 70 56 L 70 42 Z"/></clipPath><clipPath id="VDuNRNlzLbfL"><path fill="none" stroke="none" d=" M 140 42 L 140 56 L 154 56 L 154 42 Z"/></clipPath><clipPath id="wIJymgxbhvtQ"><path fill="none" stroke="none" d=" M -13.999999999999996 42 L -14 56 L -3.552713678800501e-15 56 L 0 42 Z"/></clipPath><clipPath id="FvanboyEGdFx"><path fill="none" stroke="none" d=" M 210 42 L 210 56 L 224 56 L 224 42 Z"/></clipPath></defs><g transform="translate(64.08000254631042,-147.60000586509705) scale(3.6000001430511475,3.6000001430511475)"><path fill="none" stroke="rgb(0,223,43)" paint-order="fill stroke markers" d=" M 70 49 L 140 49" stroke-opacity="0.7" stroke-linejoin="round" stroke-miterlimit="10" stroke-width="1.5"/><path fill="none" stroke="none"/><path fill="rgb(202,203,204)" stroke="none" paint-order="stroke fill markers" d=" M 85 45.269999999999996 L 95 45.269999999999996 Q 97 45.269999999999996 97 47.269999999999996 L 97 50.73 Q 97 52.73 95 52.73 L 85 52.73 Q 83 52.73 83 50.73 L 83 47.269999999999996 Q 83 45.269999999999996 85 45.269999999999996 Z" fill-opacity="0.7"/><text fill="none" stroke="rgb(255,255,255)" font-family="Helvetica Neue, Helvetica, sans-serif" font-size="5.46px" font-style="normal" font-weight="normal" text-decoration="normal" x="90" y="51.73" text-anchor="middle" dominant-baseline="text-after-edge" stroke-opacity="0.7" stroke-linejoin="round" stroke-miterlimit="10" stroke-width="0.6">e1-1</text><text fill="rgb(0,0,0)" stroke="none" font-family="Helvetica Neue, Helvetica, sans-serif" font-size="5.46px" font-style="normal" font-weight="normal" text-decoration="normal" x="90" y="51.73" text-anchor="middle" dominant-baseline="text-after-edge" fill-opacity="0.7">e1-1</text><path fill="none" stroke="none"/><path fill="rgb(202,203,204)" stroke="none" paint-order="stroke fill markers" d=" M 115 45.269999999999996 L 125 45.269999999999996 Q 127 45.269999999999996 127 47.269999999999996 L 127 50.73 Q 127 52.73 125 52.73 L 115 52.73 Q 113 52.73 113 50.73 L 113 47.269999999999996 Q 113 45.269999999999996 115 45.269999999999996 Z" fill-opacity="0.7"/><text fill="none" stroke="rgb(255,255,255)" font-family="Helvetica Neue, Helvetica, sans-serif" font-size="5.46px" font-style="normal" font-weight="normal" text-decoration="normal" x="120" y="51.73" text-anchor="middle" dominant-baseline="text-after-edge" stroke-opacity="0.7" stroke-linejoin="round" stroke-miterlimit="10" stroke-width="0.6">e1-1</text><text fill="rgb(0,0,0)" stroke="none" font-family="Helvetica Neue, Helvetica, sans-serif" font-size="5.46px" font-style="normal" font-weight="normal" text-decoration="normal" x="120" y="51.73" text-anchor="middle" dominant-baseline="text-after-edge" fill-opacity="0.7">e1-1</text><path fill="none" stroke="rgb(0,223,43)" paint-order="fill stroke markers" d=" M 56 49 L 0 49" stroke-opacity="0.7" stroke-linejoin="round" stroke-miterlimit="10" stroke-width="1.5"/><path fill="none" stroke="none"/><path fill="rgb(202,203,204)" stroke="none" paint-order="stroke fill markers" d=" M 29.5 45.269999999999996 L 42.5 45.269999999999996 Q 44.5 45.269999999999996 44.5 47.269999999999996 L 44.5 50.73 Q 44.5 52.73 42.5 52.73 L 29.5 52.73 Q 27.5 52.73 27.5 50.73 L 27.5 47.269999999999996 Q 27.5 45.269999999999996 29.5 45.269999999999996 Z" fill-opacity="0.7"/><text fill="none" stroke="rgb(255,255,255)" font-family="Helvetica Neue, Helvetica, sans-serif" font-size="5.46px" font-style="normal" font-weight="normal" text-decoration="normal" x="36" y="51.73" text-anchor="middle" dominant-baseline="text-after-edge" stroke-opacity="0.7" stroke-linejoin="round" stroke-miterlimit="10" stroke-width="0.6">e1-10</text><text fill="rgb(0,0,0)" stroke="none" font-family="Helvetica Neue, Helvetica, sans-serif" font-size="5.46px" font-style="normal" font-weight="normal" text-decoration="normal" x="36" y="51.73" text-anchor="middle" dominant-baseline="text-after-edge" fill-opacity="0.7">e1-10</text><path fill="none" stroke="none"/><path fill="rgb(202,203,204)" stroke="none" paint-order="stroke fill markers" d=" M 15.5 45.269999999999996 L 24.5 45.269999999999996 Q 26.5 45.269999999999996 26.5 47.269999999999996 L 26.5 50.73 Q 26.5 52.73 24.5 52.73 L 15.5 52.73 Q 13.5 52.73 13.5 50.73 L 13.5 47.269999999999996 Q 13.5 45.269999999999996 15.5 45.269999999999996 Z" fill-opacity="0.7"/><text fill="none" stroke="rgb(255,255,255)" font-family="Helvetica Neue, Helvetica, sans-serif" font-size="5.46px" font-style="normal" font-weight="normal" text-decoration="normal" x="20" y="51.73" text-anchor="middle" dominant-baseline="text-after-edge" stroke-opacity="0.7" stroke-linejoin="round" stroke-miterlimit="10" stroke-width="0.6">eth1</text><text fill="rgb(0,0,0)" stroke="none" font-family="Helvetica Neue, Helvetica, sans-serif" font-size="5.46px" font-style="normal" font-weight="normal" text-decoration="normal" x="20" y="51.73" text-anchor="middle" dominant-baseline="text-after-edge" fill-opacity="0.7">eth1</text><path fill="none" stroke="rgb(0,223,43)" paint-order="fill stroke markers" d=" M 154 49 L 210 49" stroke-opacity="0.7" stroke-linejoin="round" stroke-miterlimit="10" stroke-width="1.5"/><path fill="none" stroke="none"/><path fill="rgb(202,203,204)" stroke="none" paint-order="stroke fill markers" d=" M 167.5 45.269999999999996 L 180.5 45.269999999999996 Q 182.5 45.269999999999996 182.5 47.269999999999996 L 182.5 50.73 Q 182.5 52.73 180.5 52.73 L 167.5 52.73 Q 165.5 52.73 165.5 50.73 L 165.5 47.269999999999996 Q 165.5 45.269999999999996 167.5 45.269999999999996 Z" fill-opacity="0.7"/><text fill="none" stroke="rgb(255,255,255)" font-family="Helvetica Neue, Helvetica, sans-serif" font-size="5.46px" font-style="normal" font-weight="normal" text-decoration="normal" x="174" y="51.73" text-anchor="middle" dominant-baseline="text-after-edge" stroke-opacity="0.7" stroke-linejoin="round" stroke-miterlimit="10" stroke-width="0.6">e1-10</text><text fill="rgb(0,0,0)" stroke="none" font-family="Helvetica Neue, Helvetica, sans-serif" font-size="5.46px" font-style="normal" font-weight="normal" text-decoration="normal" x="174" y="51.73" text-anchor="middle" dominant-baseline="text-after-edge" fill-opacity="0.7">e1-10</text><path fill="none" stroke="none"/><path fill="rgb(202,203,204)" stroke="none" paint-order="stroke fill markers" d=" M 185.5 45.269999999999996 L 194.5 45.269999999999996 Q 196.5 45.269999999999996 196.5 47.269999999999996 L 196.5 50.73 Q 196.5 52.73 194.5 52.73 L 185.5 52.73 Q 183.5 52.73 183.5 50.73 L 183.5 47.269999999999996 Q 183.5 45.269999999999996 185.5 45.269999999999996 Z" fill-opacity="0.7"/><text fill="none" stroke="rgb(255,255,255)" font-family="Helvetica Neue, Helvetica, sans-serif" font-size="5.46px" font-style="normal" font-weight="normal" text-decoration="normal" x="190" y="51.73" text-anchor="middle" dominant-baseline="text-after-edge" stroke-opacity="0.7" stroke-linejoin="round" stroke-miterlimit="10" stroke-width="0.6">eth1</text><text fill="rgb(0,0,0)" stroke="none" font-family="Helvetica Neue, Helvetica, sans-serif" font-size="5.46px" font-style="normal" font-weight="normal" text-decoration="normal" x="190" y="51.73" text-anchor="middle" dominant-baseline="text-after-edge" fill-opacity="0.7">eth1</text><path fill="rgb(143,150,172)" stroke="none" paint-order="stroke fill markers" d=" M 56 42 L 56 56 L 70 56 L 70 42 Z" fill-opacity="1"/><g clip-path="url(#gJHktqXcmOTX)"><g><g transform="translate(56, 42)">
                <svg width="14" height="14"
                        xmlns:xlink="http://www.w3.org/1999/xlink"
                        xmlns="http://www.w3.org/2000/svg"
                        xml:space="preserve"
                        style="enable-background:new 0 0 120 120;"
                        viewBox="0 0 120 120"
                        y="0px"
                        x="0px"
                        id="Layer_1"
                        version="1.1"
                        
                        
                        fill="none"
                    >
                        
                        <rect width="120" height="120" fill="#005aff" />
                        <g>
                            <g>
                                <path d="M71.7,19.7V48h28" fill="none" stroke="#FFFFFF" stroke-width="4" stroke-linecap="round" stroke-linejoin="round" stroke-miterlimit="10" />
                                <path d="M91.2,38.5l7.5,7.6c1.3,1.3,1.3,3.1,0,4.3L91.1,58" fill="none" stroke="#FFFFFF" stroke-width="4" stroke-linecap="round" stroke-linejoin="round" stroke-miterlimit="10" />
                            </g>
                            <g>
                                <path d="M20,47.8h28.4v-28" fill="none" stroke="#FFFFFF" stroke-width="4" stroke-linecap="round" stroke-linejoin="round" stroke-miterlimit="10" />
                                <path d="M38.8,28.3l7.6-7.5c1.3-1.3,3.1-1.3,4.3,0l7.7,7.6" fill="none" stroke="#FFFFFF" stroke-width="4" stroke-linecap="round" stroke-linejoin="round" stroke-miterlimit="10" />
                            </g>
                            <g>
                                <path d="M48,100.3V72H20" fill="none" stroke="#FFFFFF" stroke-width="4" stroke-linecap="round" stroke-linejoin="round" stroke-miterlimit="10" />
                                <path d="M28.5,81.5L21,73.9c-1.3-1.3-1.3-3.1,0-4.3l7.6-7.7" fill="none" stroke="#FFFFFF" stroke-width="4" stroke-linecap="round" stroke-linejoin="round" stroke-miterlimit="10" />
                            </g>
                            <g>
                                <path d="M100,71.9H71.6v28" fill="none" stroke="#FFFFFF" stroke-width="4" stroke-linecap="round" stroke-linejoin="round" stroke-miterlimit="10" />
                                <path d="M81.2,91.4l-7.6,7.5c-1.3,1.3-3.1,1.3-4.3,0l-7.7-7.6" fill="none" stroke="#FFFFFF" stroke-width="4" stroke-linecap="round" stroke-linejoin="round" stroke-miterlimit="10" />
                            </g>
                        </g>
                    </svg></g></g></g><path fill="none" stroke="none"/><path fill="rgb(0,0,0)" stroke="none" paint-order="stroke fill markers" d=" M 57.5 55 L 68.5 55 Q 70.5 55 70.5 57 L 70.5 62.53999999999999 Q 70.5 64.53999999999999 68.5 64.53999999999999 L 57.5 64.53999999999999 Q 55.5 64.53999999999999 55.5 62.53999999999999 L 55.5 57 Q 55.5 55 57.5 55 Z" fill-opacity="0.7"/><text fill="none" stroke="rgb(60,62,65)" font-family="Helvetica Neue, Helvetica, sans-serif" font-size="7.539999999999999px" font-style="normal" font-weight="normal" text-decoration="normal" x="63" y="63.54" text-anchor="middle" dominant-baseline="text-after-edge" stroke-opacity="1" stroke-linejoin="round" stroke-miterlimit="10" stroke-width="0.6">pe1</text><text fill="rgb(245,245,245)" stroke="none" font-family="Helvetica Neue, Helvetica, sans-serif" font-size="7.539999999999999px" font-style="normal" font-weight="normal" text-decoration="normal" x="63" y="63.54" text-anchor="middle" dominant-baseline="text-after-edge" fill-opacity="1">pe1</text><path fill="rgb(143,150,172)" stroke="none" paint-order="stroke fill markers" d=" M 140 42 L 140 56 L 154 56 L 154 42 Z" fill-opacity="1"/><g clip-path="url(#VDuNRNlzLbfL)"><g><g transform="translate(140, 42)">
                <svg width="14" height="14"
                        xmlns:xlink="http://www.w3.org/1999/xlink"
                        xmlns="http://www.w3.org/2000/svg"
                        xml:space="preserve"
                        style="enable-background:new 0 0 120 120;"
                        viewBox="0 0 120 120"
                        y="0px"
                        x="0px"
                        id="Layer_1"
                        version="1.1"
                        
                        
                        fill="none"
                    >
                        
                        <rect width="120" height="120" fill="#005aff" />
                        <g>
                            <g>
                                <path d="M71.7,19.7V48h28" fill="none" stroke="#FFFFFF" stroke-width="4" stroke-linecap="round" stroke-linejoin="round" stroke-miterlimit="10" />
                                <path d="M91.2,38.5l7.5,7.6c1.3,1.3,1.3,3.1,0,4.3L91.1,58" fill="none" stroke="#FFFFFF" stroke-width="4" stroke-linecap="round" stroke-linejoin="round" stroke-miterlimit="10" />
                            </g>
                            <g>
                                <path d="M20,47.8h28.4v-28" fill="none" stroke="#FFFFFF" stroke-width="4" stroke-linecap="round" stroke-linejoin="round" stroke-miterlimit="10" />
                                <path d="M38.8,28.3l7.6-7.5c1.3-1.3,3.1-1.3,4.3,0l7.7,7.6" fill="none" stroke="#FFFFFF" stroke-width="4" stroke-linecap="round" stroke-linejoin="round" stroke-miterlimit="10" />
                            </g>
                            <g>
                                <path d="M48,100.3V72H20" fill="none" stroke="#FFFFFF" stroke-width="4" stroke-linecap="round" stroke-linejoin="round" stroke-miterlimit="10" />
                                <path d="M28.5,81.5L21,73.9c-1.3-1.3-1.3-3.1,0-4.3l7.6-7.7" fill="none" stroke="#FFFFFF" stroke-width="4" stroke-linecap="round" stroke-linejoin="round" stroke-miterlimit="10" />
                            </g>
                            <g>
                                <path d="M100,71.9H71.6v28" fill="none" stroke="#FFFFFF" stroke-width="4" stroke-linecap="round" stroke-linejoin="round" stroke-miterlimit="10" />
                                <path d="M81.2,91.4l-7.6,7.5c-1.3,1.3-3.1,1.3-4.3,0l-7.7-7.6" fill="none" stroke="#FFFFFF" stroke-width="4" stroke-linecap="round" stroke-linejoin="round" stroke-miterlimit="10" />
                            </g>
                        </g>
                    </svg></g></g></g><path fill="none" stroke="none"/><path fill="rgb(0,0,0)" stroke="none" paint-order="stroke fill markers" d=" M 141.5 55 L 152.5 55 Q 154.5 55 154.5 57 L 154.5 62.53999999999999 Q 154.5 64.53999999999999 152.5 64.53999999999999 L 141.5 64.53999999999999 Q 139.5 64.53999999999999 139.5 62.53999999999999 L 139.5 57 Q 139.5 55 141.5 55 Z" fill-opacity="0.7"/><text fill="none" stroke="rgb(60,62,65)" font-family="Helvetica Neue, Helvetica, sans-serif" font-size="7.539999999999999px" font-style="normal" font-weight="normal" text-decoration="normal" x="147" y="63.54" text-anchor="middle" dominant-baseline="text-after-edge" stroke-opacity="1" stroke-linejoin="round" stroke-miterlimit="10" stroke-width="0.6">pe2</text><text fill="rgb(245,245,245)" stroke="none" font-family="Helvetica Neue, Helvetica, sans-serif" font-size="7.539999999999999px" font-style="normal" font-weight="normal" text-decoration="normal" x="147" y="63.54" text-anchor="middle" dominant-baseline="text-after-edge" fill-opacity="1">pe2</text><path fill="rgb(143,150,172)" stroke="none" paint-order="stroke fill markers" d=" M -13.999999999999996 42 L -14 56 L -3.552713678800501e-15 56 L 0 42 Z" fill-opacity="1"/><g clip-path="url(#wIJymgxbhvtQ)"><g><g transform="translate(-14, 42)">
                <svg width="14" height="14"
                        xmlns:xlink="http://www.w3.org/1999/xlink"
                        xmlns="http://www.w3.org/2000/svg"
                        xml:space="preserve"
                        style="enable-background:new 0 0 120 120;"
                        viewBox="0 0 120 120"
                        y="0px"
                        x="0px"
                        id="Layer_1"
                        version="1.1"
                        
                        
                        fill="none"
                    >
                        
                        <rect width="120" height="120" fill="#005aff" />
                        <g>
                            <g>
                                <path d="M71.7,19.7V48h28" fill="none" stroke="#FFFFFF" stroke-width="4" stroke-linecap="round" stroke-linejoin="round" stroke-miterlimit="10" />
                                <path d="M91.2,38.5l7.5,7.6c1.3,1.3,1.3,3.1,0,4.3L91.1,58" fill="none" stroke="#FFFFFF" stroke-width="4" stroke-linecap="round" stroke-linejoin="round" stroke-miterlimit="10" />
                            </g>
                            <g>
                                <path d="M20,47.8h28.4v-28" fill="none" stroke="#FFFFFF" stroke-width="4" stroke-linecap="round" stroke-linejoin="round" stroke-miterlimit="10" />
                                <path d="M38.8,28.3l7.6-7.5c1.3-1.3,3.1-1.3,4.3,0l7.7,7.6" fill="none" stroke="#FFFFFF" stroke-width="4" stroke-linecap="round" stroke-linejoin="round" stroke-miterlimit="10" />
                            </g>
                            <g>
                                <path d="M48,100.3V72H20" fill="none" stroke="#FFFFFF" stroke-width="4" stroke-linecap="round" stroke-linejoin="round" stroke-miterlimit="10" />
                                <path d="M28.5,81.5L21,73.9c-1.3-1.3-1.3-3.1,0-4.3l7.6-7.7" fill="none" stroke="#FFFFFF" stroke-width="4" stroke-linecap="round" stroke-linejoin="round" stroke-miterlimit="10" />
                            </g>
                            <g>
                                <path d="M100,71.9H71.6v28" fill="none" stroke="#FFFFFF" stroke-width="4" stroke-linecap="round" stroke-linejoin="round" stroke-miterlimit="10" />
                                <path d="M81.2,91.4l-7.6,7.5c-1.3,1.3-3.1,1.3-4.3,0l-7.7-7.6" fill="none" stroke="#FFFFFF" stroke-width="4" stroke-linecap="round" stroke-linejoin="round" stroke-miterlimit="10" />
                            </g>
                        </g>
                    </svg></g></g></g><path fill="none" stroke="none"/><path fill="rgb(0,0,0)" stroke="none" paint-order="stroke fill markers" d=" M -12.5 55 L -1.5 55 Q 0.5 55 0.5 57 L 0.5 62.53999999999999 Q 0.5 64.53999999999999 -1.5 64.53999999999999 L -12.5 64.53999999999999 Q -14.5 64.53999999999999 -14.5 62.53999999999999 L -14.5 57 Q -14.5 55 -12.5 55 Z" fill-opacity="0.7"/><text fill="none" stroke="rgb(60,62,65)" font-family="Helvetica Neue, Helvetica, sans-serif" font-size="7.539999999999999px" font-style="normal" font-weight="normal" text-decoration="normal" x="-7" y="63.54" text-anchor="middle" dominant-baseline="text-after-edge" stroke-opacity="1" stroke-linejoin="round" stroke-miterlimit="10" stroke-width="0.6">ce1</text><text fill="rgb(245,245,245)" stroke="none" font-family="Helvetica Neue, Helvetica, sans-serif" font-size="7.539999999999999px" font-style="normal" font-weight="normal" text-decoration="normal" x="-7" y="63.54" text-anchor="middle" dominant-baseline="text-after-edge" fill-opacity="1">ce1</text><path fill="rgb(143,150,172)" stroke="none" paint-order="stroke fill markers" d=" M 210 42 L 210 56 L 224 56 L 224 42 Z" fill-opacity="1"/><g clip-path="url(#FvanboyEGdFx)"><g><g transform="translate(210, 42)">
                <svg width="14" height="14"
                        xmlns:xlink="http://www.w3.org/1999/xlink"
                        xmlns="http://www.w3.org/2000/svg"
                        xml:space="preserve"
                        style="enable-background:new 0 0 120 120;"
                        viewBox="0 0 120 120"
                        y="0px"
                        x="0px"
                        id="Layer_1"
                        version="1.1"
                        
                        
                        fill="none"
                    >
                        
                        <rect width="120" height="120" fill="#005aff" />
                        <g>
                            <g>
                                <path d="M71.7,19.7V48h28" fill="none" stroke="#FFFFFF" stroke-width="4" stroke-linecap="round" stroke-linejoin="round" stroke-miterlimit="10" />
                                <path d="M91.2,38.5l7.5,7.6c1.3,1.3,1.3,3.1,0,4.3L91.1,58" fill="none" stroke="#FFFFFF" stroke-width="4" stroke-linecap="round" stroke-linejoin="round" stroke-miterlimit="10" />
                            </g>
                            <g>
                                <path d="M20,47.8h28.4v-28" fill="none" stroke="#FFFFFF" stroke-width="4" stroke-linecap="round" stroke-linejoin="round" stroke-miterlimit="10" />
                                <path d="M38.8,28.3l7.6-7.5c1.3-1.3,3.1-1.3,4.3,0l7.7,7.6" fill="none" stroke="#FFFFFF" stroke-width="4" stroke-linecap="round" stroke-linejoin="round" stroke-miterlimit="10" />
                            </g>
                            <g>
                                <path d="M48,100.3V72H20" fill="none" stroke="#FFFFFF" stroke-width="4" stroke-linecap="round" stroke-linejoin="round" stroke-miterlimit="10" />
                                <path d="M28.5,81.5L21,73.9c-1.3-1.3-1.3-3.1,0-4.3l7.6-7.7" fill="none" stroke="#FFFFFF" stroke-width="4" stroke-linecap="round" stroke-linejoin="round" stroke-miterlimit="10" />
                            </g>
                            <g>
                                <path d="M100,71.9H71.6v28" fill="none" stroke="#FFFFFF" stroke-width="4" stroke-linecap="round" stroke-linejoin="round" stroke-miterlimit="10" />
                                <path d="M81.2,91.4l-7.6,7.5c-1.3,1.3-3.1,1.3-4.3,0l-7.7-7.6" fill="none" stroke="#FFFFFF" stroke-width="4" stroke-linecap="round" stroke-linejoin="round" stroke-miterlimit="10" />
                            </g>
                        </g>
                    </svg></g></g></g><path fill="none" stroke="none"/><path fill="rgb(0,0,0)" stroke="none" paint-order="stroke fill markers" d=" M 211.5 55 L 222.5 55 Q 224.5 55 224.5 57 L 224.5 62.53999999999999 Q 224.5 64.53999999999999 222.5 64.53999999999999 L 211.5 64.53999999999999 Q 209.5 64.53999999999999 209.5 62.53999999999999 L 209.5 57 Q 209.5 55 211.5 55 Z" fill-opacity="0.7"/><text fill="none" stroke="rgb(60,62,65)" font-family="Helvetica Neue, Helvetica, sans-serif" font-size="7.539999999999999px" font-style="normal" font-weight="normal" text-decoration="normal" x="217" y="63.54" text-anchor="middle" dominant-baseline="text-after-edge" stroke-opacity="1" stroke-linejoin="round" stroke-miterlimit="10" stroke-width="0.6">ce2</text><text fill="rgb(245,245,245)" stroke="none" font-family="Helvetica Neue, Helvetica, sans-serif" font-size="7.539999999999999px" font-style="normal" font-weight="normal" text-decoration="normal" x="217" y="63.54" text-anchor="middle" dominant-baseline="text-after-edge" fill-opacity="1">ce2</text><g transform="scale(0.277777766739881,0.277777766739881) translate(-64.08000254631042,147.60000586509705)"/></g></svg>